#Comment line ignore any data following # character 
#Hierarchical Translation and Rotation (.htr) file 
[Header]	
#Header keywords are followed by a single value 
FileType HTR		#Single word string
DataType HTRS		#Translation followed by rotation and scale data
FileVersion 1		#integer
NumSegments 84		#integer
NumFrames 2		#integer
DataFrameRate 30		#integer, data frame rate in this file
EulerRotationOrder ZYX
CalibrationUnits mm
RotationUnits Degrees
GlobalAxisofGravity Y
BoneLengthAxis Y
ScaleFactor 1.00
[SegmentNames&Hierarchy]
#CHILD	PARENT
MASTER GLOBAL
root MASTER
chest root
L_mid_tent01 root
R_mid_tent01 root
spine01 root
Bip01_Neck chest
L_humerus chest
R_humerus chest
weapon_bone chest
Bip01_Head Bip01_Neck
eye_left_bone Bip01_Head
eye_right_bone Bip01_Head
L_forearm L_humerus
L_front_hand L_forearm
L_weapon_bone L_forearm
L_front_hand01_01 L_front_hand
L_front_hand02_01 L_front_hand
L_front_hand03_01 L_front_hand
L_front_hand01_02 L_front_hand01_01
L_front_hand02_02 L_front_hand02_01
L_front_hand03_02 L_front_hand03_01
R_forearm R_humerus
R_front_hand R_forearm
R_weapon_bone R_forearm
R_front_hand01_01 R_front_hand
R_front_hand02_01 R_front_hand
R_front_hand03_01 R_front_hand
R_front_hand01_02 R_front_hand01_01
R_front_hand02_02 R_front_hand02_01
R_front_hand03_02 R_front_hand03_01
null_rope01_connect L_mid_tent01
Rope1_Seg01 null_rope01_connect
Rope1_Seg02 Rope1_Seg01
Rope1_Seg03 Rope1_Seg02
Rope1_Seg04 Rope1_Seg03
Rope1_Seg05 Rope1_Seg04
Rope1_Seg06 Rope1_Seg05
Rope1_Seg07 Rope1_Seg06
Rope1_Seg09 Rope1_Seg07
L_mid_hand01 Rope1_Seg09
L_mid_hand02 Rope1_Seg09
L_mid_hand03 Rope1_Seg09
null_rope02_connect R_mid_tent01
Rope2_Seg01 null_rope02_connect
Rope2_Seg02 Rope2_Seg01
Rope2_Seg03 Rope2_Seg02
Rope2_Seg04 Rope2_Seg03
Rope2_Seg05 Rope2_Seg04
Rope2_Seg06 Rope2_Seg05
Rope2_Seg07 Rope2_Seg06
Rope2_Seg09 Rope2_Seg07
R_mid_hand01 Rope2_Seg09
R_mid_hand02 Rope2_Seg09
R_mid_hand03 Rope2_Seg09
spine02 spine01
spine03 spine02
pelvis spine03
null_rope03_connect pelvis
null_rope04_connect pelvis
Rope3_Seg01 null_rope03_connect
Rope3_Seg02 Rope3_Seg01
Rope3_Seg03 Rope3_Seg02
Rope3_Seg04 Rope3_Seg03
Rope3_Seg05 Rope3_Seg04
Rope3_Seg06 Rope3_Seg05
Rope3_Seg07 Rope3_Seg06
Rope3_Seg08 Rope3_Seg07
Rope3_Seg09 Rope3_Seg08
R_rear_hand01 Rope3_Seg09
R_rear_hand02 Rope3_Seg09
R_rear_hand03 Rope3_Seg09
Rope4_Seg01 null_rope04_connect
Rope4_Seg02 Rope4_Seg01
Rope4_Seg03 Rope4_Seg02
Rope4_Seg04 Rope4_Seg03
Rope4_Seg05 Rope4_Seg04
Rope4_Seg06 Rope4_Seg05
Rope4_Seg07 Rope4_Seg06
Rope4_Seg08 Rope4_Seg07
Rope4_Seg09 Rope4_Seg08
L_rear_hand01 Rope4_Seg09
L_rear_hand02 Rope4_Seg09
L_rear_hand03 Rope4_Seg09
[BasePosition]
#SegmentName Tx, Ty, Tz, Rx, Ry, Rz, BoneLength
MASTER 0.000000 0.000000 0.000000 -90.000000 0.000000 0.000000 10.000000 
root 0.000000 0.000000 0.000000 0.000000 0.000000 0.000000 10.000000 
chest 0.000000 0.000000 0.000000 0.000000 0.000000 0.000000 10.000000 
L_mid_tent01 0.000000 0.000000 0.000000 0.000000 0.000000 0.000000 10.000000 
R_mid_tent01 0.000000 0.000000 0.000000 0.000000 0.000000 0.000000 10.000000 
spine01 0.000000 0.000000 0.000000 0.000000 0.000000 0.000000 10.000000 
Bip01_Neck 0.000000 0.000000 0.000000 0.000000 0.000000 0.000000 10.000000 
L_humerus 0.000000 0.000000 0.000000 0.000000 0.000000 0.000000 10.000000 
R_humerus 0.000000 0.000000 0.000000 0.000000 0.000000 0.000000 10.000000 
weapon_bone 0.000000 0.000000 0.000000 0.000000 0.000000 0.000000 10.000000 
Bip01_Head 0.000000 0.000000 0.000000 0.000000 0.000000 0.000000 10.000000 
eye_left_bone 0.000000 0.000000 0.000000 0.000000 0.000000 0.000000 10.000000 
eye_right_bone 0.000000 0.000000 0.000000 0.000000 0.000000 0.000000 10.000000 
L_forearm 0.000000 0.000000 0.000000 0.000000 0.000000 0.000000 10.000000 
L_front_hand 0.000000 0.000000 0.000000 0.000000 0.000000 0.000000 10.000000 
L_weapon_bone 0.000000 0.000000 0.000000 0.000000 0.000000 0.000000 10.000000 
L_front_hand01_01 0.000000 0.000000 0.000000 0.000000 0.000000 0.000000 10.000000 
L_front_hand02_01 0.000000 0.000000 0.000000 0.000000 0.000000 0.000000 10.000000 
L_front_hand03_01 0.000000 0.000000 0.000000 0.000000 0.000000 0.000000 10.000000 
L_front_hand01_02 0.000000 0.000000 0.000000 0.000000 0.000000 0.000000 10.000000 
L_front_hand02_02 0.000000 0.000000 0.000000 0.000000 0.000000 0.000000 10.000000 
L_front_hand03_02 0.000000 0.000000 0.000000 0.000000 0.000000 0.000000 10.000000 
R_forearm 0.000000 0.000000 0.000000 0.000000 0.000000 0.000000 10.000000 
R_front_hand 0.000000 0.000000 0.000000 0.000000 0.000000 0.000000 10.000000 
R_weapon_bone 0.000000 0.000000 0.000000 0.000000 0.000000 0.000000 10.000000 
R_front_hand01_01 0.000000 0.000000 0.000000 0.000000 0.000000 0.000000 10.000000 
R_front_hand02_01 0.000000 0.000000 0.000000 0.000000 0.000000 0.000000 10.000000 
R_front_hand03_01 0.000000 0.000000 0.000000 0.000000 0.000000 0.000000 10.000000 
R_front_hand01_02 0.000000 0.000000 0.000000 0.000000 0.000000 0.000000 10.000000 
R_front_hand02_02 0.000000 0.000000 0.000000 0.000000 0.000000 0.000000 10.000000 
R_front_hand03_02 0.000000 0.000000 0.000000 0.000000 0.000000 0.000000 10.000000 
null_rope01_connect 0.000000 0.000000 0.000000 0.000000 0.000000 0.000000 10.000000 
Rope1_Seg01 0.000000 0.000000 0.000000 0.000000 0.000000 0.000000 10.000000 
Rope1_Seg02 0.000000 0.000000 0.000000 0.000000 0.000000 0.000000 10.000000 
Rope1_Seg03 0.000000 0.000000 0.000000 0.000000 0.000000 0.000000 10.000000 
Rope1_Seg04 0.000000 0.000000 0.000000 0.000000 0.000000 0.000000 10.000000 
Rope1_Seg05 0.000000 0.000000 0.000000 0.000000 0.000000 0.000000 10.000000 
Rope1_Seg06 0.000000 0.000000 0.000000 0.000000 0.000000 0.000000 10.000000 
Rope1_Seg07 0.000000 0.000000 0.000000 0.000000 0.000000 0.000000 10.000000 
Rope1_Seg09 0.000000 0.000000 0.000000 0.000000 0.000000 0.000000 10.000000 
L_mid_hand01 0.000000 0.000000 0.000000 0.000000 0.000000 0.000000 10.000000 
L_mid_hand02 0.000000 0.000000 0.000000 0.000000 0.000000 0.000000 10.000000 
L_mid_hand03 0.000000 0.000000 0.000000 0.000000 0.000000 0.000000 10.000000 
null_rope02_connect 0.000000 0.000000 0.000000 0.000000 0.000000 0.000000 10.000000 
Rope2_Seg01 0.000000 0.000000 0.000000 0.000000 0.000000 0.000000 10.000000 
Rope2_Seg02 0.000000 0.000000 0.000000 0.000000 0.000000 0.000000 10.000000 
Rope2_Seg03 0.000000 0.000000 0.000000 0.000000 0.000000 0.000000 10.000000 
Rope2_Seg04 0.000000 0.000000 0.000000 0.000000 0.000000 0.000000 10.000000 
Rope2_Seg05 0.000000 0.000000 0.000000 0.000000 0.000000 0.000000 10.000000 
Rope2_Seg06 0.000000 0.000000 0.000000 0.000000 0.000000 0.000000 10.000000 
Rope2_Seg07 0.000000 0.000000 0.000000 0.000000 0.000000 0.000000 10.000000 
Rope2_Seg09 0.000000 0.000000 0.000000 0.000000 0.000000 0.000000 10.000000 
R_mid_hand01 0.000000 0.000000 0.000000 0.000000 0.000000 0.000000 10.000000 
R_mid_hand02 0.000000 0.000000 0.000000 0.000000 0.000000 0.000000 10.000000 
R_mid_hand03 0.000000 0.000000 0.000000 0.000000 0.000000 0.000000 10.000000 
spine02 0.000000 0.000000 0.000000 0.000000 0.000000 0.000000 10.000000 
spine03 0.000000 0.000000 0.000000 0.000000 0.000000 0.000000 10.000000 
pelvis 0.000000 0.000000 0.000000 0.000000 0.000000 0.000000 10.000000 
null_rope03_connect 0.000000 0.000000 0.000000 0.000000 0.000000 0.000000 10.000000 
null_rope04_connect 0.000000 0.000000 0.000000 0.000000 0.000000 0.000000 10.000000 
Rope3_Seg01 0.000000 0.000000 0.000000 0.000000 0.000000 0.000000 10.000000 
Rope3_Seg02 0.000000 0.000000 0.000000 0.000000 0.000000 0.000000 10.000000 
Rope3_Seg03 0.000000 0.000000 0.000000 0.000000 0.000000 0.000000 10.000000 
Rope3_Seg04 0.000000 0.000000 0.000000 0.000000 0.000000 0.000000 10.000000 
Rope3_Seg05 0.000000 0.000000 0.000000 0.000000 0.000000 0.000000 10.000000 
Rope3_Seg06 0.000000 0.000000 0.000000 0.000000 0.000000 0.000000 10.000000 
Rope3_Seg07 0.000000 0.000000 0.000000 0.000000 0.000000 0.000000 10.000000 
Rope3_Seg08 0.000000 0.000000 0.000000 0.000000 0.000000 0.000000 10.000000 
Rope3_Seg09 0.000000 0.000000 0.000000 0.000000 0.000000 0.000000 10.000000 
R_rear_hand01 0.000000 0.000000 0.000000 0.000000 0.000000 0.000000 10.000000 
R_rear_hand02 0.000000 0.000000 0.000000 0.000000 0.000000 0.000000 10.000000 
R_rear_hand03 0.000000 0.000000 0.000000 0.000000 0.000000 0.000000 10.000000 
Rope4_Seg01 0.000000 0.000000 0.000000 0.000000 0.000000 0.000000 10.000000 
Rope4_Seg02 0.000000 0.000000 0.000000 0.000000 0.000000 0.000000 10.000000 
Rope4_Seg03 0.000000 0.000000 0.000000 0.000000 0.000000 0.000000 10.000000 
Rope4_Seg04 0.000000 0.000000 0.000000 0.000000 0.000000 0.000000 10.000000 
Rope4_Seg05 0.000000 0.000000 0.000000 0.000000 0.000000 0.000000 10.000000 
Rope4_Seg06 0.000000 0.000000 0.000000 0.000000 0.000000 0.000000 10.000000 
Rope4_Seg07 0.000000 0.000000 0.000000 0.000000 0.000000 0.000000 10.000000 
Rope4_Seg08 0.000000 0.000000 0.000000 0.000000 0.000000 0.000000 10.000000 
Rope4_Seg09 0.000000 0.000000 0.000000 0.000000 0.000000 0.000000 10.000000 
L_rear_hand01 0.000000 0.000000 0.000000 0.000000 0.000000 0.000000 10.000000 
L_rear_hand02 0.000000 0.000000 0.000000 0.000000 0.000000 0.000000 10.000000 
L_rear_hand03 0.000000 0.000000 0.000000 0.000000 0.000000 0.000000 10.000000 
#Beginning of Data. Separated by tabs
#Fr	Tx	Ty	Tz	Rx	Ry	Rz	SF
[MASTER]
7 0.000000 0.000000 0.000000 0.001660 0.001660 0.001660 0.000000
8 0.000000 0.000000 0.000000 0.001660 0.001660 0.001660 0.000000
[root]
7 -35.654987 -52.588772 4480.220215 -97.625465 -24.969337 -90.102478 4480.670898
8 -36.294743 -52.246964 4283.587891 -97.809128 -29.933912 -89.159218 4284.060059
[chest]
7 -84.512650 -34.090519 0.000000 -7.099902 -7.319240 158.718979 91.129311
8 -84.512650 -34.090519 0.000000 -7.547301 -7.681981 160.151184 91.129311
[L_mid_tent01]
7 27.299234 22.178745 -249.918427 -1.727233 50.981644 78.975838 252.381393
8 27.299229 22.178761 -249.918442 3.862626 36.229160 81.347595 252.381409
[R_mid_tent01]
7 23.228794 24.509907 226.238495 161.435242 -53.330303 87.428787 228.744751
8 23.228794 24.509907 226.238495 160.432037 -47.061203 87.899765 228.744751
[spine01]
7 -0.361383 -0.195265 0.000000 0.002062 0.001122 32.879829 0.410763
8 -0.361383 -0.195265 0.000000 0.002062 0.001122 32.879829 0.410763
[Bip01_Neck]
7 165.484543 71.581718 0.000119 176.643677 -1.657967 43.431911 180.302734
8 165.484543 71.581718 0.000119 176.643677 -1.657967 43.431911 180.302734
[L_humerus]
7 -13.983130 -135.272980 -120.471481 47.710979 68.335365 170.232147 181.680161
8 -13.983130 -135.272980 -120.471481 57.189968 70.838295 -177.695847 181.680161
[R_humerus]
7 -13.983309 -135.273102 125.287651 -169.625488 -18.703556 -102.592049 184.909012
8 -13.983309 -135.273102 125.287651 -170.489487 -15.750065 -101.354149 184.909012
[weapon_bone]
7 235.964890 -300.705902 0.000000 0.000000 -89.951546 -128.212341 382.234833
8 235.964890 -300.705902 0.000000 0.000000 -89.951546 -128.212341 382.234833
[Bip01_Head]
7 213.327072 186.042465 7.559244 33.220230 6.149204 -43.830616 283.156097
8 213.338867 186.008896 7.986798 33.000244 4.580544 -43.850574 283.154694
[eye_left_bone]
7 -24.626970 125.451866 -64.772606 0.000000 -90.000000 -99.840431 143.318359
8 -24.626970 125.451866 -64.772606 0.000000 -90.000000 -99.840431 143.318359
[eye_right_bone]
7 -24.626970 125.451866 64.327362 0.000000 -89.965736 80.156380 143.117676
8 -24.626970 125.451866 64.327362 0.000000 -89.965736 80.156380 143.117676
[L_forearm]
7 322.776093 0.000000 -0.000119 0.000180 -0.002340 -98.778984 322.776093
8 322.776093 0.000000 -0.000119 0.000170 -0.002341 -98.315628 322.776093
[L_front_hand]
7 241.149185 -0.042021 -3.300071 -178.539932 -1.736220 -31.539007 241.171753
8 241.149185 -0.042021 -3.300071 -178.552521 -1.746630 -31.123892 241.171753
[L_weapon_bone]
7 156.183838 0.000000 0.000000 0.000014 0.000007 0.000001 156.183838
8 156.183838 0.000000 0.000000 0.000014 0.000007 0.000001 156.183838
[L_front_hand01_01]
7 86.095154 20.947098 -0.655860 -0.351864 -0.488251 73.756912 88.609184
8 86.095154 20.947098 -0.655860 -0.358124 -0.483585 74.301987 88.609184
[L_front_hand02_01]
7 86.935165 -11.437475 24.513514 151.937759 -59.151104 -58.507717 91.046425
8 86.935165 -11.437475 24.513514 152.741364 -59.405788 -59.444736 91.046425
[L_front_hand03_01]
7 86.637497 -14.123976 -20.424902 -151.626480 57.374607 -59.999687 90.126129
8 86.637497 -14.123976 -20.424902 -152.381119 57.628048 -60.890831 90.126129
[L_front_hand01_02]
7 71.020905 -0.000179 0.000030 0.000324 -0.002325 -105.890907 71.020905
8 71.020905 -0.000179 0.000030 0.000326 -0.002325 -105.943520 71.020905
[L_front_hand02_02]
7 71.020927 -0.000119 0.000060 0.000324 -0.002325 -105.890907 71.020927
8 71.020927 -0.000119 0.000060 0.000326 -0.002325 -105.943520 71.020927
[L_front_hand03_02]
7 71.020905 -0.000060 0.000060 0.000324 -0.002325 -105.890907 71.020905
8 71.020905 -0.000060 0.000060 0.000326 -0.002325 -105.943520 71.020905
[R_forearm]
7 322.776428 -0.000060 0.000030 0.212452 0.020945 -96.889069 322.776428
8 322.776428 -0.000060 0.000030 0.212528 0.020177 -96.474678 322.776428
[R_front_hand]
7 238.847015 -0.006795 2.210259 -1.725841 -10.826077 -31.182905 238.857239
8 238.847015 -0.006795 2.210259 -1.817730 -10.810472 -30.689642 238.857239
[R_weapon_bone]
7 155.664093 0.002503 -0.000030 0.003487 0.001180 -90.988930 155.664078
8 155.664093 0.002503 -0.000030 0.003487 0.001180 -90.988930 155.664078
[R_front_hand01_01]
7 87.624611 14.231146 22.918642 -154.633484 -59.950607 61.746025 91.683487
8 87.624611 14.231146 22.918642 -154.633514 -59.950634 61.746063 91.683487
[R_front_hand02_01]
7 89.356956 14.367283 -19.491137 154.602661 58.302849 63.744389 92.579636
8 89.356956 14.367283 -19.491137 154.602661 58.302849 63.744389 92.579636
[R_front_hand03_01]
7 87.286232 -22.307278 -0.143439 0.162155 -0.423168 -75.767921 90.091743
8 87.286232 -22.307278 -0.143439 0.162155 -0.423168 -75.767921 90.091743
[R_front_hand01_02]
7 71.020905 0.000060 0.000119 0.002323 -0.000334 106.381714 71.020905
8 71.020905 0.000060 0.000119 0.002323 -0.000334 106.381714 71.020905
[R_front_hand02_02]
7 71.020844 -0.000030 -0.000119 0.002323 -0.000334 106.381714 71.020836
8 71.020844 -0.000030 -0.000119 0.002323 -0.000334 106.381714 71.020836
[R_front_hand03_02]
7 71.020905 0.000000 0.000030 0.002323 -0.000334 106.381714 71.020905
8 71.020905 0.000000 0.000030 0.002323 -0.000334 106.381714 71.020905
[null_rope01_connect]
7 328.732483 0.000000 -0.000238 -146.966705 -31.393988 -177.331223 328.732483
8 328.732483 0.000000 -0.000238 -137.789017 -46.584454 178.579239 328.732483
[Rope1_Seg01]
7 -0.000038 -0.000114 0.000099 122.772011 19.192932 -158.597946 0.000156
8 -0.000038 -0.000114 0.000100 114.705719 11.490064 -164.011490 0.000157
[Rope1_Seg02]
7 139.999863 -0.000179 0.000000 5.884808 -18.665625 8.463997 139.999863
8 139.999863 -0.000179 0.000000 9.804747 -14.747097 -1.054984 139.999863
[Rope1_Seg03]
7 139.999924 0.000060 -0.000060 -2.576913 -27.047201 20.709694 139.999924
8 139.999924 0.000060 -0.000060 8.874437 -31.603041 1.981157 139.999924
[Rope1_Seg04]
7 139.999924 -0.000060 -0.000119 -4.345963 -23.498835 11.638322 139.999924
8 139.999924 -0.000060 -0.000119 -3.224137 -29.056656 10.775316 139.999924
[Rope1_Seg05]
7 139.999832 0.000119 -0.000060 -1.896189 -5.761249 0.121856 139.999832
8 139.999832 0.000119 -0.000060 0.296264 -1.213344 3.015942 139.999832
[Rope1_Seg06]
7 139.999954 0.000119 -0.000060 -0.824769 -2.684510 0.644337 139.999954
8 139.999954 0.000119 -0.000060 -0.224290 -1.816275 1.147840 139.999954
[Rope1_Seg07]
7 139.999985 0.000060 0.000000 -0.517640 -1.579425 0.355028 139.999985
8 139.999985 0.000060 0.000000 -0.142987 -1.075717 0.655868 139.999985
[Rope1_Seg09]
7 121.602913 0.000119 -0.000089 -89.793175 -1.359789 0.847147 121.602913
8 121.602913 0.000119 -0.000089 -89.793175 -1.359789 0.847147 121.602913
[L_mid_hand01]
7 103.859421 1.038730 8.195221 130.544388 -67.584534 -38.866955 104.187431
8 103.859421 1.038730 8.195221 130.544373 -67.584534 -38.866943 104.187431
[L_mid_hand02]
7 105.572853 -4.139662 -10.864139 -168.923172 43.409309 -73.498886 106.211075
8 105.572853 -4.139662 -10.864139 -168.923172 43.409309 -73.498886 106.211075
[L_mid_hand03]
7 104.641464 17.579376 -3.913581 -6.012627 17.808174 74.893669 106.179977
8 104.641464 17.579376 -3.913581 -6.012627 17.808174 74.893669 106.179977
[null_rope02_connect]
7 328.732849 0.000179 -0.000119 -127.127075 41.389187 17.585676 328.732849
8 328.732849 0.000179 -0.000119 -117.982231 45.976467 23.223068 328.732849
[Rope2_Seg01]
7 -0.000037 0.000101 0.000000 -126.989052 53.312092 -24.676777 0.000108
8 -0.000030 0.000102 0.000000 -125.825089 47.289745 -26.675835 0.000106
[Rope2_Seg02]
7 139.999741 -0.000060 -0.000119 -4.419606 -7.265190 7.582486 139.999756
8 139.999741 -0.000060 -0.000119 -6.702778 -7.563303 9.072497 139.999756
[Rope2_Seg03]
7 140.000107 0.000030 0.000000 -4.100072 -12.145432 10.678896 140.000107
8 140.000107 0.000030 0.000000 -5.029814 -13.052616 11.616223 140.000107
[Rope2_Seg04]
7 139.999802 0.000000 -0.000060 -2.579882 -18.930000 11.547882 139.999802
8 139.999802 0.000000 -0.000060 -2.661749 -17.569727 11.181219 139.999802
[Rope2_Seg05]
7 139.999985 -0.000060 0.000119 -1.024945 -10.199724 16.726488 139.999985
8 139.999985 -0.000060 0.000119 -2.147212 -9.639669 19.560514 139.999985
[Rope2_Seg06]
7 139.999893 -0.000030 -0.000119 2.847221 -2.750038 14.337117 139.999893
8 139.999893 -0.000030 -0.000119 1.962491 -4.586007 15.565277 139.999893
[Rope2_Seg07]
7 139.999893 0.000060 -0.000060 2.128390 -2.627909 7.568223 139.999893
8 139.999893 0.000060 -0.000060 1.834765 -3.024723 7.558996 139.999893
[Rope2_Seg09]
7 121.338966 0.000089 -0.000060 33.793236 -1.359788 -0.847141 121.338966
8 121.338966 0.000089 -0.000060 33.793236 -1.359788 -0.847141 121.338966
[R_mid_hand01]
7 104.680779 11.144459 -10.335981 -16.212063 45.237247 70.462852 105.778534
8 104.680779 11.144459 -10.335981 -16.212063 45.237247 70.462852 105.778534
[R_mid_hand02]
7 104.070427 2.443552 8.231699 49.067368 -67.749779 39.286465 104.424065
8 104.070427 2.443552 8.231699 49.067368 -67.749771 39.286453 104.424065
[R_mid_hand03]
7 106.028137 -11.221827 -5.996406 -177.101105 15.551026 -76.585571 106.788818
8 106.028137 -11.221827 -5.996406 -177.101105 15.551026 -76.585571 106.788818
[spine02]
7 129.756927 0.001550 0.000119 -1.199003 -4.095181 9.259817 129.756927
8 129.756927 0.001550 0.000119 -1.196301 -4.073246 9.234606 129.756927
[spine03]
7 78.613792 0.083450 -4.898868 0.920317 4.572423 2.671922 78.766327
8 78.613808 0.083371 -4.898873 0.922432 4.532660 2.686504 78.766342
[pelvis]
7 169.435242 0.051022 0.000000 0.025259 -0.030136 -13.855278 169.435257
8 169.435242 0.051022 0.000000 0.027039 -0.044869 -13.830367 169.435257
[null_rope03_connect]
7 -1.257226 -2.466202 137.391083 -154.102585 -81.660072 -121.789978 137.418976
8 -1.257226 -2.466202 137.391083 -155.063339 -81.932426 -115.821991 137.418976
[null_rope04_connect]
7 -1.259640 -2.480268 -137.844437 -154.102585 -81.660072 -121.789978 137.872513
8 -1.259640 -2.480268 -137.844437 -155.063339 -81.932426 -115.821991 137.872513
[Rope3_Seg01]
7 -0.000006 -0.000022 0.000242 -131.327957 -5.513980 -68.445183 0.000243
8 -0.000007 -0.000020 0.000232 -132.731003 -10.697678 -65.141708 0.000232
[Rope3_Seg02]
7 139.999924 -0.000119 0.000060 -2.079176 3.050475 -9.510649 139.999924
8 139.999924 -0.000119 0.000060 -2.917107 2.996114 -10.153852 139.999924
[Rope3_Seg03]
7 139.999924 -0.000119 0.000119 -4.713102 4.602733 -12.990471 139.999924
8 139.999924 -0.000119 0.000119 -5.930801 4.514556 -13.130656 139.999924
[Rope3_Seg04]
7 139.999924 0.000119 0.000000 -12.523308 7.923430 -20.388229 139.999924
8 139.999924 0.000119 0.000000 -14.022180 7.464966 -19.453882 139.999924
[Rope3_Seg05]
7 139.999924 -0.000238 0.000060 -15.162463 10.007886 -15.527655 139.999924
8 139.999924 -0.000238 0.000060 -14.061378 8.896705 -12.436620 139.999924
[Rope3_Seg06]
7 139.999893 -0.000119 -0.000060 0.703499 1.022324 2.149672 139.999893
8 139.999893 -0.000119 -0.000060 0.786360 1.358103 2.756356 139.999893
[Rope3_Seg07]
7 139.999771 0.000060 -0.000119 7.125257 -5.452721 10.806688 139.999771
8 139.999771 0.000060 -0.000119 5.972660 -3.128420 9.396325 139.999771
[Rope3_Seg08]
7 139.999985 -0.000060 0.000000 2.237688 -0.524519 4.632667 139.999985
8 139.999985 -0.000060 0.000000 1.545458 0.604640 3.725054 139.999985
[Rope3_Seg09]
7 90.185997 -0.000179 -0.000060 89.793228 -1.359877 -0.847183 90.185997
8 90.185997 -0.000179 -0.000060 89.793228 -1.359877 -0.847183 90.185997
[R_rear_hand01]
7 103.366196 -6.073594 -10.757982 -177.714203 24.565960 -73.910950 104.101845
8 103.366196 -6.073594 -10.757982 -177.714203 24.565960 -73.910950 104.101845
[R_rear_hand02]
7 100.509819 12.039542 -7.992327 -12.874829 36.868488 72.167213 101.543350
8 100.509819 12.039542 -7.992327 -12.874829 36.868488 72.167213 101.543350
[R_rear_hand03]
7 101.539970 5.215704 5.435467 71.484581 -71.816628 21.513813 101.819031
8 101.539970 5.215704 5.435467 71.484581 -71.816628 21.513813 101.819031
[Rope4_Seg01]
7 0.000017 -0.000038 -0.000516 60.622177 -29.571157 -123.817177 0.000517
8 0.000017 -0.000038 -0.000500 61.741688 -31.947681 -123.627434 0.000502
[Rope4_Seg02]
7 139.999985 0.000060 0.000119 -4.737871 3.278709 -8.490378 139.999985
8 139.999985 0.000060 0.000119 -4.340466 2.355707 -8.049121 139.999985
[Rope4_Seg03]
7 139.999924 0.000000 -0.000238 -11.452682 8.956404 -18.915403 139.999924
8 139.999924 0.000000 -0.000238 -10.289754 6.394314 -16.988106 139.999924
[Rope4_Seg04]
7 139.999985 0.000000 0.000119 -19.916346 25.914928 -34.215797 139.999985
8 139.999985 0.000000 0.000119 -19.729210 19.689919 -31.168640 139.999985
[Rope4_Seg05]
7 139.999802 -0.000060 -0.000119 -6.201951 18.551512 -24.937550 139.999802
8 139.999802 -0.000060 -0.000119 -14.006840 20.864830 -33.349678 139.999802
[Rope4_Seg06]
7 139.999924 0.000000 0.000060 -1.054447 7.496080 -17.066008 139.999924
8 139.999924 0.000000 0.000060 -2.620507 10.144337 -14.576653 139.999924
[Rope4_Seg07]
7 139.999802 0.000000 0.000000 -0.126618 4.857283 -7.692074 139.999802
8 139.999802 0.000000 0.000000 -0.308381 4.786238 -5.398830 139.999802
[Rope4_Seg08]
7 139.999924 0.000000 0.000119 -1.428650 2.482432 -3.874012 139.999924
8 139.999924 0.000000 0.000119 -1.518546 2.380787 -2.671926 139.999924
[Rope4_Seg09]
7 90.185791 0.000060 0.000060 -135.617828 2.228885 0.850567 90.185791
8 90.185791 0.000060 0.000060 -135.617828 2.228885 0.850567 90.185791
[L_rear_hand01]
7 101.696655 -8.392275 -7.654577 -12.874829 -36.868488 107.832764 102.329041
8 101.696655 -8.392275 -7.654577 -12.874829 -36.868488 107.832764 102.329041
[L_rear_hand02]
7 102.726799 -1.568258 5.773216 71.484581 71.816628 158.486160 102.900848
8 102.726799 -1.568258 5.773216 71.484581 71.816628 158.486160 102.900848
[L_rear_hand03]
7 104.552910 9.721220 -10.420293 -177.714203 -24.565960 -106.089035 105.519653
8 104.552910 9.721220 -10.420293 -177.714203 -24.565960 -106.089035 105.519653
